<svg width="133" height="31" viewBox="0 0 133 31" fill="none" xmlns="http://www.w3.org/2000/svg">
<path d="M0.306818 24L4.17045 0.727272H20.0568L19.2841 5.29545H9.02273L8.25 10.0682H17.5L16.7273 14.6477H7.47727L5.93182 24H0.306818ZM30.4432 16.4659L32.1023 6.54545H37.6477L34.7386 24H29.4432L29.9773 20.75H29.7955C29.2576 21.8182 28.4659 22.6667 27.4205 23.2955C26.375 23.9167 25.197 24.2273 23.8864 24.2273C22.697 24.2273 21.697 23.9545 20.8864 23.4091C20.0758 22.8636 19.5 22.1023 19.1591 21.125C18.8258 20.1402 18.7652 18.9886 18.9773 17.6705L20.8409 6.54545H26.3977L24.7273 16.5795C24.5833 17.5265 24.7083 18.2727 25.1023 18.8182C25.5038 19.3636 26.1326 19.6364 26.9886 19.6364C27.5417 19.6364 28.0606 19.5152 28.5455 19.2727C29.0303 19.0227 29.4394 18.6629 29.7727 18.1932C30.1136 17.7159 30.3371 17.1402 30.4432 16.4659ZM51.0369 6.54545L50.3438 10.6364H39.3324L40.0256 6.54545H51.0369ZM43.0142 2.36364H48.571L45.8892 18.5114C45.8362 18.8523 45.8438 19.1288 45.9119 19.3409C45.9877 19.5455 46.1241 19.6932 46.321 19.7841C46.5256 19.8674 46.7756 19.9091 47.071 19.9091C47.2756 19.9091 47.5028 19.8864 47.7528 19.8409C48.0028 19.7955 48.1922 19.7614 48.321 19.7386L48.5028 23.75C48.2074 23.8333 47.8097 23.928 47.3097 24.0341C46.8172 24.1477 46.2415 24.2197 45.5824 24.25C44.2491 24.303 43.1468 24.1477 42.2756 23.7841C41.4119 23.4129 40.8021 22.8371 40.446 22.0568C40.0975 21.2765 40.0294 20.2992 40.2415 19.125L43.0142 2.36364ZM63.4744 16.4659L65.1335 6.54545H70.679L67.7699 24H62.4744L63.0085 20.75H62.8267C62.2888 21.8182 61.4972 22.6667 60.4517 23.2955C59.4063 23.9167 58.2282 24.2273 56.9176 24.2273C55.7282 24.2273 54.7282 23.9545 53.9176 23.4091C53.107 22.8636 52.5312 22.1023 52.1903 21.125C51.857 20.1402 51.7964 18.9886 52.0085 17.6705L53.8722 6.54545H59.429L57.7585 16.5795C57.6146 17.5265 57.7396 18.2727 58.1335 18.8182C58.535 19.3636 59.1638 19.6364 60.0199 19.6364C60.5729 19.6364 61.0919 19.5152 61.5767 19.2727C62.0616 19.0227 62.4706 18.6629 62.804 18.1932C63.1449 17.7159 63.3684 17.1402 63.4744 16.4659ZM71.3068 24L74.2159 6.54545H79.6136L79.0795 9.72727H79.2614C79.7689 8.57576 80.4318 7.7197 81.25 7.15909C82.0682 6.59091 82.9545 6.30682 83.9091 6.30682C84.1667 6.30682 84.4242 6.32576 84.6818 6.36364C84.947 6.39394 85.197 6.43939 85.4318 6.5L84.6136 11.3409C84.3561 11.2424 84.0189 11.1705 83.6023 11.125C83.1856 11.072 82.8068 11.0455 82.4659 11.0455C81.8068 11.0455 81.1932 11.1932 80.625 11.4886C80.0644 11.7765 79.5871 12.1818 79.1932 12.7045C78.8068 13.2197 78.553 13.8258 78.4318 14.5227L76.8636 24H71.3068ZM91.983 24.3295C90.1572 24.3295 88.642 23.9697 87.4375 23.25C86.2405 22.5227 85.3996 21.4886 84.9148 20.1477C84.4299 18.7992 84.3428 17.197 84.6534 15.3409C84.9564 13.5379 85.5739 11.9621 86.5057 10.6136C87.4451 9.25758 88.6269 8.20454 90.0511 7.45454C91.4754 6.69697 93.0625 6.31818 94.8125 6.31818C96.0549 6.31818 97.1572 6.51136 98.1193 6.89773C99.0814 7.28409 99.8769 7.85985 100.506 8.625C101.134 9.38258 101.563 10.3144 101.79 11.4205C102.017 12.5265 102.009 13.7955 101.767 15.2273L101.551 16.6136H86.392L86.9034 13.3864H96.9034C96.9943 12.7955 96.9451 12.2689 96.7557 11.8068C96.5663 11.3447 96.2595 10.9848 95.8352 10.7273C95.4186 10.4621 94.9072 10.3295 94.3011 10.3295C93.6875 10.3295 93.1117 10.4735 92.5739 10.7614C92.0436 11.0417 91.5928 11.4205 91.2216 11.8977C90.8504 12.375 90.608 12.9129 90.4943 13.5114L89.892 16.8182C89.7708 17.553 89.8049 18.1818 89.9943 18.7045C90.1837 19.2273 90.5095 19.6288 90.9716 19.9091C91.4337 20.1818 92.0284 20.3182 92.7557 20.3182C93.2405 20.3182 93.6951 20.2538 94.1193 20.125C94.5436 19.9886 94.9223 19.7879 95.2557 19.5227C95.5966 19.25 95.8731 18.9205 96.0852 18.5341L101.153 18.6818C100.744 19.8258 100.112 20.822 99.2557 21.6705C98.3996 22.5114 97.3542 23.1667 96.1193 23.6364C94.892 24.0985 93.5133 24.3295 91.983 24.3295ZM112.571 0.727272L108.707 24H103.151L107.014 0.727272H112.571ZM114.574 30.5455C113.907 30.5455 113.286 30.4924 112.71 30.3864C112.142 30.2879 111.657 30.1553 111.256 29.9886L113.165 25.9545C113.672 26.1364 114.138 26.2386 114.562 26.2614C114.994 26.2917 115.381 26.2197 115.722 26.0455C116.07 25.8788 116.373 25.5795 116.631 25.1477L116.949 24.6136L113.756 6.54545H119.369L120.506 19.0114H120.688L126.028 6.54545H132.085L122.347 25.6705C121.854 26.625 121.259 27.4697 120.562 28.2045C119.866 28.9394 119.025 29.5114 118.04 29.9205C117.063 30.3371 115.907 30.5455 114.574 30.5455Z" fill="black"/>
</svg>
